# xmcd
#
# Track frame offsets: 
#        150
#        12278
#        25691
#        40192
#        52058
#        64981
#        78345
#        94382
#        109830
#        126261
#        140750
#        155628
#        171672
#        186642
#        201816
#        215251
#
# Disc length: 3050 seconds
#
# Revision: 0
# Processed by: cddbd v1.5.2PL0 Copyright (c) Steve Scherf et al.
# Submitted via: ExactAudioCopy v1.0b3
#
DISCID=f30be810
DTITLE=Jean-Paul Amouroux - JPA play famous Blues in Boogie Woogie
DYEAR=1900
DGENRE=
TTITLE0=C Jam Blues
TTITLE1=Yellow Dog Blues
TTITLE2=Memphis Blues
TTITLE3=Blues in the Night
TTITLE4=Blues March
TTITLE5=St. Louis Blues
TTITLE6=Arkansas Blues
TTITLE7=Wabash Blues
TTITLE8=Blue Monk
TTITLE9=Swinging The Blues
TTITLE10=West End Blues
TTITLE11=The Weary Blues
TTITLE12=Blues in my Heart
TTITLE13=Royal Garden Blues
TTITLE14=Blues in Thirds
TTITLE15=C Jam Blues
EXTD=
EXTT0=
EXTT1=
EXTT2=
EXTT3=
EXTT4=
EXTT5=
EXTT6=
EXTT7=
EXTT8=
EXTT9=
EXTT10=
EXTT11=
EXTT12=
EXTT13=
EXTT14=
EXTT15=
PLAYORDER=
